HIERARCHY
ROOT hip
{
  OFFSET 0 0 0
  CHANNELS 6 Xposition Yposition Zposition Zrotation Yrotation Xrotation
  JOINT abdomen
  {
    OFFSET 0 20.6881 -0.73152
    CHANNELS 3 Zrotation Xrotation Yrotation
    JOINT chest
    {
      OFFSET 0 11.7043 -0.48768
      CHANNELS 3 Zrotation Xrotation Yrotation
      JOINT neck
      {
        OFFSET 0 22.1894 -2.19456
        CHANNELS 3 Zrotation Xrotation Yrotation
        JOINT head
        {
          OFFSET -0.24384 7.07133 1.2192
          CHANNELS 3 Zrotation Xrotation Yrotation
          JOINT leftEye
          {
            OFFSET 4.14528 8.04674 8.04672
            CHANNELS 3 Zrotation Xrotation Yrotation
            End Site
            {
              OFFSET 1 0 0
            }
          }
          JOINT rightEye
          {
            OFFSET -3.6576 8.04674 8.04672
            CHANNELS 3 Zrotation Xrotation Yrotation
            End Site
            {
              OFFSET 1 0 0
            }
          }
        }
      }
      JOINT rCollar
      {
        OFFSET -2.68224 19.2634 -4.8768
        CHANNELS 3 Zrotation Xrotation Yrotation
        JOINT rShldr
        {
          OFFSET -8.77824 -1.95073 1.46304
          CHANNELS 3 Zrotation Xrotation Yrotation
          JOINT rForeArm
          {
            OFFSET -28.1742 -1.7115 0.48768
            CHANNELS 3 Zrotation Xrotation Yrotation
            JOINT rHand
            {
              OFFSET -22.5879 0.773209 7.07136
              CHANNELS 3 Zrotation Xrotation Yrotation
              JOINT rThumb1
              {
                OFFSET -1.2192 -0.487915 3.41376
                CHANNELS 3 Zrotation Xrotation Yrotation
                JOINT rThumb2
                {
                  OFFSET -3.37035 -0.52449 3.41376
                  CHANNELS 3 Zrotation Xrotation Yrotation
                  End Site
                  {
                    OFFSET -1.78271 -1.18214 1.43049
                  }
                }
              }
              JOINT rIndex1
              {
                OFFSET -7.75947 0.938293 5.60832
                CHANNELS 3 Zrotation Xrotation Yrotation
                JOINT rIndex2
                {
                  OFFSET -2.54057 -0.884171 1.56538
                  CHANNELS 3 Zrotation Xrotation Yrotation
                  End Site
                  {
                    OFFSET -1.62519 -0.234802 1.16502
                  }
                }
              }
              JOINT rMid1
              {
                OFFSET -8.24714 1.18213 3.41376
                CHANNELS 3 Zrotation Xrotation Yrotation
                JOINT rMid2
                {
                  OFFSET -3.10165 -0.590103 1.0647
                  CHANNELS 3 Zrotation Xrotation Yrotation
                  End Site
                  {
                    OFFSET -2.48547 -0.328903 0.83742
                  }
                }
              }
              JOINT rRing1
              {
                OFFSET -8.82822 0.546677 1.51678
                CHANNELS 3 Zrotation Xrotation Yrotation
                JOINT rRing2
                {
                  OFFSET -2.60934 -0.819778 -0.0198488
                  CHANNELS 3 Zrotation Xrotation Yrotation
                  End Site
                  {
                    OFFSET -2.33842 -0.294052 0.168128
                  }
                }
              }
              JOINT rPinky1
              {
                OFFSET -8.27202 -0.0477905 -0.4584
                CHANNELS 3 Zrotation Xrotation Yrotation
                JOINT rPinky2
                {
                  OFFSET -1.82734 -0.647385 -0.700984
                  CHANNELS 3 Zrotation Xrotation Yrotation
                  End Site
                  {
                    OFFSET -1.69225 -0.51767 -0.607171
                  }
                }
              }
            }
          }
        }
      }
      JOINT lCollar
      {
        OFFSET 2.68224 19.2634 -4.8768
        CHANNELS 3 Zrotation Xrotation Yrotation
        JOINT lShldr
        {
          OFFSET 8.77824 -1.95073 1.46304
          CHANNELS 3 Zrotation Xrotation Yrotation
          JOINT lForeArm
          {
            OFFSET 28.1742 -1.7115 0.48768
            CHANNELS 3 Zrotation Xrotation Yrotation
            JOINT lHand
            {
              OFFSET 22.5879 0.773209 7.07136
              CHANNELS 3 Zrotation Xrotation Yrotation
              JOINT lThumb1
              {
                OFFSET 1.2192 -0.487915 3.41376
                CHANNELS 3 Zrotation Xrotation Yrotation
                JOINT lThumb2
                {
                  OFFSET 3.37035 -0.52449 3.41376
                  CHANNELS 3 Zrotation Xrotation Yrotation
                  End Site
                  {
                    OFFSET 1.78271 -1.18214 1.43049
                  }
                }
              }
              JOINT lIndex1
              {
                OFFSET 7.75947 0.938293 5.60832
                CHANNELS 3 Zrotation Xrotation Yrotation
                JOINT lIndex2
                {
                  OFFSET 2.54057 -0.884171 1.56538
                  CHANNELS 3 Zrotation Xrotation Yrotation
                  End Site
                  {
                    OFFSET 1.62519 -0.234802 1.16502
                  }
                }
              }
              JOINT lMid1
              {
                OFFSET 8.24714 1.18213 3.41376
                CHANNELS 3 Zrotation Xrotation Yrotation
                JOINT lMid2
                {
                  OFFSET 3.10165 -0.590103 1.0647
                  CHANNELS 3 Zrotation Xrotation Yrotation
                  End Site
                  {
                    OFFSET 2.48547 -0.328903 0.83742
                  }
                }
              }
              JOINT lRing1
              {
                OFFSET 8.82822 0.546677 1.51678
                CHANNELS 3 Zrotation Xrotation Yrotation
                JOINT lRing2
                {
                  OFFSET 2.60934 -0.819778 -0.0198488
                  CHANNELS 3 Zrotation Xrotation Yrotation
                  End Site
                  {
                    OFFSET 2.33842 -0.294052 0.168128
                  }
                }
              }
              JOINT lPinky1
              {
                OFFSET 8.27202 -0.0477905 -0.4584
                CHANNELS 3 Zrotation Xrotation Yrotation
                JOINT lPinky2
                {
                  OFFSET 1.82734 -0.647385 -0.700984
                  CHANNELS 3 Zrotation Xrotation Yrotation
                  End Site
                  {
                    OFFSET 1.69225 -0.51767 -0.607171
                  }
                }
              }
            }
          }
        }
      }
    }
  }
  JOINT rButtock
  {
    OFFSET -8.77824 4.35084 1.2192
    CHANNELS 3 Zrotation Xrotation Yrotation
    JOINT rThigh
    {
      OFFSET 0 -1.70687 -2.19456
      CHANNELS 3 Zrotation Xrotation Yrotation
      JOINT rShin
      {
        OFFSET 0 -36.8199 0.73152
        CHANNELS 3 Zrotation Xrotation Yrotation
        JOINT rFoot
        {
          OFFSET 0.73152 -45.1104 -5.12064
          CHANNELS 3 Zrotation Xrotation Yrotation
          End Site
          {
            OFFSET -1.1221 -3.69964 12.103
          }
        }
      }
    }
  }
  JOINT lButtock
  {
    OFFSET 8.77824 4.35084 1.2192
    CHANNELS 3 Zrotation Xrotation Yrotation
    JOINT lThigh
    {
      OFFSET 0 -1.70687 -2.19456
      CHANNELS 3 Zrotation Xrotation Yrotation
      JOINT lShin
      {
        OFFSET 0 -36.8199 0.73152
        CHANNELS 3 Zrotation Xrotation Yrotation
        JOINT lFoot
        {
          OFFSET -0.73152 -45.1104 -5.12064
          CHANNELS 3 Zrotation Xrotation Yrotation
          End Site
          {
            OFFSET 1.1221 -3.69964 12.103
          }
        }
      }
    }
  }
}
MOTION
Frames:	4
Frame Time:	0.03333
4.589500924572349 65.25 -61.200100019574165 -5.677999779582024 -26.23299926519394 -350.2869915962219 -6.907130107283592 15.550499707460403 12.149100601673126 2.0513299852609634 -12.400500029325485 3.120589926838875 -4.4293999671936035 12.556699812412262 2.811910081654787 11.114199757575989 -32.386300563812256 9.210939779877663 0.0 0.0 0.0 0.0 0.0 0.0 0.0 0.0 0.0 -14.347499459981918 40.119101107120514 100.58600306510925 -27.240300178527832 -27.17580109834671 62.75319814682007 -0.5793040059506893 -21.103400588035583 -3.109240159392357 -5.094324961874008e-10 -3.581135388230905e-10 -6.139089236967266e-11 -8.786571470409399e-10 -6.087930159992538e-10 -1.1254996934439987e-10 -5.094324961874008e-10 -3.581135388230905e-10 -6.139089236967266e-11 7.7309102565050125 5.474880114197731 0.41731400415301323 -5.094324961874008e-10 -3.581135388230905e-10 -6.139089236967266e-11 2.905540131032467 0.9651830233633518 0.102901995414868 -5.094324961874008e-10 -3.581135388230905e-10 -6.139089236967266e-11 10.27859978377819 0.7318009994924068 0.025912300043273717 -5.094324961874008e-10 -3.581135388230905e-10 -6.139089236967266e-11 2.221670038998127 -0.733487019315362 -0.2089200052432716 0.0 0.0 0.0 10.43309971690178 -17.91860058903694 -112.34800457954407 27.873001098632812 -41.03710055351257 -85.8010983467102 0.9498889837414026 26.54319941997528 -4.02566984295845 -5.53397327962557e-10 -3.4737013265839778e-09 -1.6780177247710526e-09 -9.848921678212719e-10 -6.047002898412757e-09 -2.8751401259796694e-09 -5.53397327962557e-10 -3.4737013265839778e-09 -1.6780177247710526e-09 -7.7309102565050125 5.474880114197731 -0.41731400415301323 -5.53397327962557e-10 -3.4737013265839778e-09 -1.6780177247710526e-09 -2.905540131032467 0.9651830233633518 -0.102901995414868 -5.53397327962557e-10 -3.4737013265839778e-09 -1.6780177247710526e-09 -10.27859978377819 0.7318009994924068 -0.025912300043273717 -5.53397327962557e-10 -3.4737013265839778e-09 -1.6780177247710526e-09 -2.221670038998127 -0.733487019315362 0.2089200052432716 0.0 0.0 0.0 -25.083999931812286 -21.80439993739128 -12.59299948811531 -3.974439986050129 77.97130107879639 4.565679989755154 0.5507839936763048 13.602199405431747 -16.40939936041832 0.0 0.0 0.0 58.54489803314209 -57.621397376060486 66.94050192832947 4.049969986081123 76.43259823322296 -3.2937100902199745 -2.3658999614417553 12.403100430965424 32.73019999265671
3.951048931106925 65.39839935302734 -63.039100006222725 -6.748000010848045 -28.40449959039688 -349.9489903450012 -5.766339674592018 14.89370048046112 13.37679997086525 1.7191499657928944 -12.804699540138245 3.501890078186989 -3.984549902379513 12.384400069713593 2.9290101304650307 10.459699854254723 -31.019500494003296 9.084470272064209 0.0 0.0 0.0 0.0 0.0 0.0 7.993605777301127e-14 0.0 0.0 -16.2370003759861 42.29019910097122 102.24900484085083 -27.827001214027405 -29.63010013103485 66.56359791755676 -0.7358679827302694 -23.537400662899017 -3.5114099085330963 1.9149681840247013e-09 -1.9235812942497432e-09 2.9672264645341784e-09 3.249300828400692e-09 -3.4225422496092506e-09 5.156834959052503e-09 1.9149881680391445e-09 -1.9235812942497432e-09 2.9672264645341784e-09 7.7309102565050125 5.474880114197731 0.41731400415301323 1.9149681840247013e-09 -1.9235812942497432e-09 2.9672264645341784e-09 2.905540131032467 0.9651830233633518 0.102901995414868 1.9149881680391445e-09 -1.9235812942497432e-09 2.9672264645341784e-09 10.27859978377819 0.7318009994924068 0.025912300043273717 1.9149681840247013e-09 -1.9235812942497432e-09 2.9672264645341784e-09 2.221670038998127 -0.733487019315362 -0.2089200052432716 7.993605777301127e-14 0.0 0.0 10.944499745965004 -14.28690031170845 -108.54399919509888 27.706599533557892 -41.74109995365143 -87.10379898548126 1.2433000188320875 30.153098702430725 -4.6732499822974205 -3.6951441906296623e-09 -6.41023234493332e-09 -4.501998773775995e-10 -6.376719152711985e-09 -1.0968506103381515e-08 -6.855316314613447e-10 -3.6951441906296623e-09 -6.41023234493332e-09 -4.501998773775995e-10 -7.7309102565050125 5.474880114197731 -0.41731400415301323 -3.6951441906296623e-09 -6.41023234493332e-09 -4.501998773775995e-10 -2.905540131032467 0.9651830233633518 -0.102901995414868 -3.6951441906296623e-09 -6.41023234493332e-09 -4.501998773775995e-10 -10.27859978377819 0.7318009994924068 -0.025912300043273717 -3.695124206615219e-09 -6.41023234493332e-09 -4.501998773775995e-10 -2.221670038998127 -0.733487019315362 0.2089200052432716 0.0 0.0 0.0 -25.404400527477264 -16.409800350666046 -12.555799931287766 -1.9098199903964996 69.51019763946533 2.613700032234192 1.0261099878698587 15.110000520944595 -14.940100014209747 0.0 0.0 0.0 61.81730031967163 -55.90049743652344 68.68390023708344 3.736789897084236 75.58290123939514 -3.023649863898754 -3.0480800941586494 13.373099863529205 32.424900233745575
3.2694119419902563 65.5999984741211 -65.07410009205341 -7.721000164747238 -30.89430034160614 -349.60899353027344 -4.5538900047540665 14.400100260972977 14.563399851322174 1.417749971151352 -13.30289974808693 3.885439932346344 -3.492479883134365 12.143100500106812 3.170509859919548 9.577139765024185 -29.279500544071198 9.124889820814133 0.0 0.0 0.0 0.0 0.0 0.0 7.993605777301127e-14 0.0 0.0 -18.08380052447319 45.0955992937088 103.72400522232056 -28.211501240730286 -32.07309901714325 70.57149946689606 -0.8932800404727459 -25.80959916114807 -3.897339887917042 3.6666869540624702e-09 -2.5067947717616335e-09 4.839648681809194e-09 6.2396288136312705e-09 -4.496882866078522e-09 8.431015885435045e-09 3.6667069380769135e-09 -2.5067947717616335e-09 4.839648681809194e-09 7.7309102565050125 5.474880114197731 0.41731400415301323 3.6666869540624702e-09 -2.5067947717616335e-09 4.839648681809194e-09 2.905540131032467 0.9651830233633518 0.102901995414868 3.6667269220913568e-09 -2.5067947717616335e-09 4.839648681809194e-09 10.27859978377819 0.7318009994924068 0.025912300043273717 3.6666869540624702e-09 -2.5067947717616335e-09 4.839648681809194e-09 2.221670038998127 -0.733487019315362 -0.2089200052432716 7.993605777301127e-14 0.0 0.0 10.563200265169144 -10.082300305366516 -102.43499994277954 27.416998744010925 -42.78490036725998 -89.07500267028809 1.6660400480031967 34.016201198101044 -5.442909859120846 -5.516547219031054e-09 -7.2594730227137916e-09 1.064108801074326e-09 -9.487051144674297e-09 -1.2319105735514313e-08 1.9747403712244704e-09 -5.516567203045497e-09 -7.2594730227137916e-09 1.064108801074326e-09 -7.7309102565050125 5.474880114197731 -0.41731400415301323 -5.516567203045497e-09 -7.2594730227137916e-09 1.064108801074326e-09 -2.905540131032467 0.9651830233633518 -0.102901995414868 -5.516567203045497e-09 -7.2594730227137916e-09 1.064108801074326e-09 -10.27859978377819 0.7318009994924068 -0.025912300043273717 -5.516547219031054e-09 -7.2594730227137916e-09 1.064108801074326e-09 -2.221670038998127 -0.733487019315362 0.2089200052432716 0.0 0.0 0.0 -25.69949984550476 -12.114399522542953 -13.403100371360779 -1.1004599835723639 61.70700252056122 1.9108199514448643 1.0920100193470716 15.807799994945526 -12.639200538396835 0.0 0.0 0.0 64.66890156269073 -53.82760047912598 69.83910083770752 3.393779955804348 74.53879773616791 -2.739029936492443 -3.674899935722351 14.277200102806091 32.25690007209778
2.5499499645084143 65.84880065917969 -67.34710009396076 -8.787999674677849 -33.97950053215027 -349.06898975372314 -3.2911398634314537 13.605400621891022 15.548199713230133 1.1368800234049559 -13.326900154352188 4.211659915745258 -3.2837601006031036 11.945700645446777 3.68260994553566 8.770820125937462 -27.12520122528076 9.723120331764221 0.0 0.0 0.0 0.0 0.0 0.0 -1.199040866595169e-13 0.0 0.0 -19.764600098133087 48.52309763431549 104.97300267219543 -28.423698842525482 -34.49690133333206 74.45749998092651 -1.0843699984252453 -27.79270112514496 -4.268650151789188 4.4640291463338144e-10 7.213429853436537e-10 3.376499080331996e-10 7.769784815536696e-10 1.2278178473934531e-09 5.934452929068357e-10 4.4640291463338144e-10 7.213429853436537e-10 3.376499080331996e-10 7.7309102565050125 5.474880114197731 0.41731400415301323 4.4640291463338144e-10 7.213429853436537e-10 3.376499080331996e-10 2.905540131032467 0.9651830233633518 0.102901995414868 4.4640291463338144e-10 7.213429853436537e-10 3.376499080331996e-10 10.27859978377819 0.7318009994924068 0.025912300043273717 4.4640291463338144e-10 7.213429853436537e-10 3.376499080331996e-10 2.221670038998127 -0.733487019315362 -0.2089200052432716 -1.199040866595169e-13 0.0 0.0 9.05578002333641 -4.342589937150478 -93.2060980796814 26.944900453090668 -44.26759868860245 -91.84040307998657 1.886250078678131 35.77040076255798 -5.816450044512749 -4.872102721265037e-10 -1.3812950783176348e-09 1.1459633242338896e-09 -8.139489082736873e-10 -2.31239027925767e-09 1.9747403712244704e-09 -4.872502401553902e-10 -1.3812950783176348e-09 1.1459633242338896e-09 -7.7309102565050125 5.474880114197731 -0.41731400415301323 -4.872502401553902e-10 -1.3812950783176348e-09 1.1459633242338896e-09 -2.905540131032467 0.9651830233633518 -0.102901995414868 -4.872502401553902e-10 -1.3812950783176348e-09 1.1459633242338896e-09 -10.27859978377819 0.7318009994924068 -0.025912300043273717 -4.872102721265037e-10 -1.3812950783176348e-09 1.1459633242338896e-09 -2.221670038998127 -0.733487019315362 0.2089200052432716 0.0 0.0 0.0 -26.291200518608093 -9.555230140686035 -15.208799690008163 -0.7591590285301208 56.173498034477234 1.6721900179982185 0.5850549973547459 14.003700613975525 -10.879200026392937 0.0 0.0 0.0 67.15499818325043 -51.462101340293884 70.52640080451965 3.0311399325728416 73.19360017776489 -2.4153699539601803 -4.355869889259338 15.222200006246567 32.45390027761459
